<svg width="30.000000" height="12.680000" viewBox="0.000000 -29.560000 30.000000 12.680000" xmlns="http://www.w3.org/2000/svg"><path d="M3.720000 -20.300000C3.220000 -20.280000 2.810000 -20.110000 2.490000 -19.790000C2.170000 -19.470000 2.010000 -19.060000 2.010000 -18.560000C2.010000 -18.060000 2.170000 -17.655000 2.490000 -17.345000C2.810000 -17.035000 3.215000 -16.880000 3.705000 -16.880000C4.195000 -16.880000 4.600000 -17.035000 4.920000 -17.345000C5.240000 -17.655000 5.400000 -18.060000 5.400000 -18.560000C5.400000 -19.060000 5.240000 -19.470000 4.920000 -19.790000C4.600000 -20.110000 4.200000 -20.280000 3.720000 -20.300000ZM3.720000 -17.630000C3.460000 -17.630000 3.240000 -17.720000 3.060000 -17.900000C2.880000 -18.080000 2.790000 -18.300000 2.790000 -18.560000C2.790000 -18.820000 2.880000 -19.040000 3.060000 -19.220000C3.240000 -19.400000 3.460000 -19.490000 3.720000 -19.490000C3.980000 -19.490000 4.200000 -19.400000 4.380000 -19.220000C4.560000 -19.040000 4.650000 -18.820000 4.650000 -18.560000C4.650000 -18.300000 4.560000 -18.080000 4.380000 -17.900000C4.200000 -17.720000 3.980000 -17.630000 3.720000 -17.630000ZM14.760000 -27.530000L13.380000 -27.530000C13.020000 -27.530000 12.725000 -27.415000 12.495000 -27.185000C12.265000 -26.955000 12.150000 -26.660000 12.150000 -26.300000L12.150000 -21.410000C12.150000 -21.070000 12.265000 -20.785000 12.495000 -20.555000C12.725000 -20.325000 13.020000 -20.200000 13.380000 -20.180000L14.760000 -20.180000C15.120000 -20.200000 15.415000 -20.325000 15.645000 -20.555000C15.875000 -20.785000 15.990000 -21.070000 15.990000 -21.410000L15.990000 -26.300000C15.990000 -26.660000 15.875000 -26.955000 15.645000 -27.185000C15.415000 -27.415000 15.120000 -27.530000 14.760000 -27.530000ZM14.100000 -23.540000L13.920000 -23.540000C13.860000 -23.460000 13.750000 -23.425000 13.590000 -23.435000C13.430000 -23.445000 13.320000 -23.480000 13.260000 -23.540000L13.080000 -23.540000C13.020000 -23.560000 12.990000 -23.605000 12.990000 -23.675000C12.990000 -23.745000 13.020000 -23.780000 13.080000 -23.780000L13.260000 -23.780000C13.320000 -23.880000 13.430000 -23.930000 13.590000 -23.930000C13.750000 -23.930000 13.860000 -23.880000 13.920000 -23.780000L14.100000 -23.780000C14.180000 -23.780000 14.220000 -23.745000 14.220000 -23.675000C14.220000 -23.605000 14.180000 -23.560000 14.100000 -23.540000ZM15.120000 -24.830000C15.120000 -24.730000 15.080000 -24.640000 15.000000 -24.560000C14.920000 -24.480000 14.830000 -24.440000 14.730000 -24.440000L13.440000 -24.440000C13.320000 -24.440000 13.220000 -24.480000 13.140000 -24.560000C13.060000 -24.640000 13.020000 -24.730000 13.020000 -24.830000L13.020000 -26.420000C13.020000 -26.520000 13.060000 -26.610000 13.140000 -26.690000C13.220000 -26.770000 13.320000 -26.810000 13.440000 -26.810000L14.730000 -26.810000C14.830000 -26.810000 14.920000 -26.770000 15.000000 -26.690000C15.080000 -26.610000 15.120000 -26.520000 15.120000 -26.420000ZM27.510000 -21.860000C27.510000 -22.040000 27.450000 -22.195000 27.330000 -22.325000C27.210000 -22.455000 27.060000 -22.520000 26.880000 -22.520000C26.700000 -22.520000 26.545000 -22.455000 26.415000 -22.325000C26.285000 -22.195000 26.220000 -22.040000 26.220000 -21.860000C26.220000 -21.680000 26.285000 -21.530000 26.415000 -21.410000C26.545000 -21.290000 26.700000 -21.230000 26.880000 -21.230000C27.060000 -21.230000 27.210000 -21.290000 27.330000 -21.410000C27.450000 -21.530000 27.510000 -21.680000 27.510000 -21.860000ZM29.670000 -20.540000L29.670000 -27.590000C29.670000 -28.290000 29.465000 -28.790000 29.055000 -29.090000C28.645000 -29.390000 27.970000 -29.540000 27.030000 -29.540000L10.920000 -29.540000C10.740000 -29.560000 10.345000 -29.515000 9.735000 -29.405000C9.125000 -29.295000 8.500000 -29.020000 7.860000 -28.580000C7.040000 -27.940000 5.810000 -26.910000 4.170000 -25.490000L1.290000 -22.970000L1.260000 -22.970000C1.220000 -22.930000 1.080000 -22.735000 0.840000 -22.385000C0.600000 -22.035000 0.460000 -21.620000 0.420000 -21.140000L0.420000 -20.540000C0.300000 -20.540000 0.200000 -20.500000 0.120000 -20.420000C0.040000 -20.340000 0.000000 -20.250000 0.000000 -20.150000L0.000000 -18.770000C0.000000 -18.670000 0.040000 -18.580000 0.120000 -18.500000C0.200000 -18.420000 0.300000 -18.380000 0.420000 -18.380000L1.500000 -18.380000L1.500000 -18.560000C1.520000 -19.200000 1.735000 -19.725000 2.145000 -20.135000C2.555000 -20.545000 3.080000 -20.750000 3.720000 -20.750000C4.360000 -20.750000 4.885000 -20.545000 5.295000 -20.135000C5.705000 -19.725000 5.920000 -19.200000 5.940000 -18.560000C5.940000 -18.500000 5.930000 -18.440000 5.910000 -18.380000L21.810000 -18.380000L21.810000 -18.560000C21.830000 -19.200000 22.045000 -19.725000 22.455000 -20.135000C22.865000 -20.545000 23.390000 -20.750000 24.030000 -20.750000C24.670000 -20.750000 25.195000 -20.545000 25.605000 -20.135000C26.015000 -19.725000 26.230000 -19.200000 26.250000 -18.560000L26.250000 -18.380000L29.610000 -18.380000C29.710000 -18.380000 29.800000 -18.420000 29.880000 -18.500000C29.960000 -18.580000 30.000000 -18.670000 30.000000 -18.770000L30.000000 -20.150000C29.980000 -20.370000 29.870000 -20.500000 29.670000 -20.540000ZM1.050000 -21.650000C0.970000 -21.650000 0.880000 -21.660000 0.780000 -21.680000C0.900000 -22.020000 1.050000 -22.300000 1.230000 -22.520000L1.500000 -22.910000L1.530000 -22.910000C1.690000 -22.770000 1.770000 -22.595000 1.770000 -22.385000C1.770000 -22.175000 1.700000 -22.000000 1.560000 -21.860000C1.420000 -21.720000 1.250000 -21.650000 1.050000 -21.650000ZM8.430000 -22.340000L8.160000 -22.340000C8.060000 -22.180000 7.900000 -22.100000 7.680000 -22.100000C7.460000 -22.100000 7.300000 -22.180000 7.200000 -22.340000L6.930000 -22.340000C6.830000 -22.340000 6.780000 -22.395000 6.780000 -22.505000C6.780000 -22.615000 6.830000 -22.670000 6.930000 -22.670000L7.200000 -22.670000C7.300000 -22.810000 7.460000 -22.880000 7.680000 -22.880000C7.900000 -22.880000 8.060000 -22.810000 8.160000 -22.670000L8.430000 -22.670000C8.530000 -22.670000 8.580000 -22.615000 8.580000 -22.505000C8.580000 -22.395000 8.530000 -22.340000 8.430000 -22.340000ZM10.140000 -23.990000C10.140000 -23.770000 10.065000 -23.585000 9.915000 -23.435000C9.765000 -23.285000 9.570000 -23.210000 9.330000 -23.210000L3.930000 -23.210000C3.730000 -23.210000 3.595000 -23.245000 3.525000 -23.315000C3.455000 -23.385000 3.410000 -23.445000 3.390000 -23.495000C3.370000 -23.545000 3.365000 -23.620000 3.375000 -23.720000C3.385000 -23.820000 3.450000 -23.940000 3.570000 -24.080000L6.810000 -27.050000C6.950000 -27.170000 7.120000 -27.270000 7.320000 -27.350000C7.520000 -27.430000 7.710000 -27.470000 7.890000 -27.470000L9.330000 -27.470000C9.570000 -27.470000 9.765000 -27.395000 9.915000 -27.245000C10.065000 -27.095000 10.140000 -26.900000 10.140000 -26.660000ZM16.140000 -21.410000C16.120000 -21.030000 15.980000 -20.710000 15.720000 -20.450000C15.460000 -20.190000 15.140000 -20.060000 14.760000 -20.060000L13.380000 -20.060000C13.000000 -20.060000 12.680000 -20.190000 12.420000 -20.450000C12.160000 -20.710000 12.020000 -21.030000 12.000000 -21.410000L12.000000 -26.300000C12.020000 -26.680000 12.160000 -27.000000 12.420000 -27.260000C12.680000 -27.520000 13.000000 -27.650000 13.380000 -27.650000L14.760000 -27.650000C15.140000 -27.650000 15.460000 -27.520000 15.720000 -27.260000C15.980000 -27.000000 16.120000 -26.680000 16.140000 -26.300000ZM25.170000 -24.740000C25.170000 -24.580000 25.120000 -24.445000 25.020000 -24.335000C24.920000 -24.225000 24.790000 -24.170000 24.630000 -24.170000L19.740000 -24.170000C19.580000 -24.170000 19.445000 -24.225000 19.335000 -24.335000C19.225000 -24.445000 19.170000 -24.580000 19.170000 -24.740000L19.170000 -26.930000C19.170000 -27.090000 19.225000 -27.220000 19.335000 -27.320000C19.445000 -27.420000 19.580000 -27.470000 19.740000 -27.470000L24.630000 -27.470000C24.790000 -27.470000 24.920000 -27.420000 25.020000 -27.320000C25.120000 -27.220000 25.170000 -27.090000 25.170000 -26.930000ZM26.880000 -21.110000C26.660000 -21.110000 26.480000 -21.185000 26.340000 -21.335000C26.200000 -21.485000 26.130000 -21.665000 26.130000 -21.875000C26.130000 -22.085000 26.200000 -22.260000 26.340000 -22.400000C26.480000 -22.540000 26.660000 -22.610000 26.880000 -22.610000C27.100000 -22.610000 27.280000 -22.540000 27.420000 -22.400000C27.560000 -22.260000 27.630000 -22.085000 27.630000 -21.875000C27.630000 -21.665000 27.555000 -21.485000 27.405000 -21.335000C27.255000 -21.185000 27.080000 -21.110000 26.880000 -21.110000ZM29.370000 -22.280000L28.710000 -22.280000C28.610000 -22.300000 28.550000 -22.370000 28.530000 -22.490000L28.530000 -24.290000C28.550000 -24.430000 28.610000 -24.500000 28.710000 -24.500000L29.370000 -24.500000ZM24.030000 -20.300000C23.530000 -20.280000 23.120000 -20.110000 22.800000 -19.790000C22.480000 -19.470000 22.320000 -19.060000 22.320000 -18.560000C22.320000 -18.060000 22.480000 -17.655000 22.800000 -17.345000C23.120000 -17.035000 23.530000 -16.880000 24.030000 -16.880000C24.530000 -16.880000 24.935000 -17.035000 25.245000 -17.345000C25.555000 -17.655000 25.710000 -18.060000 25.710000 -18.560000C25.710000 -19.060000 25.555000 -19.470000 25.245000 -19.790000C24.935000 -20.110000 24.530000 -20.280000 24.030000 -20.300000ZM24.030000 -17.630000C23.770000 -17.630000 23.550000 -17.720000 23.370000 -17.900000C23.190000 -18.080000 23.100000 -18.300000 23.100000 -18.560000C23.100000 -18.820000 23.190000 -19.040000 23.370000 -19.220000C23.550000 -19.400000 23.770000 -19.490000 24.030000 -19.490000C24.290000 -19.490000 24.510000 -19.400000 24.690000 -19.220000C24.870000 -19.040000 24.960000 -18.820000 24.960000 -18.560000C24.960000 -18.300000 24.870000 -18.080000 24.690000 -17.900000C24.510000 -17.720000 24.290000 -17.630000 24.030000 -17.630000ZM24.030000 -17.630000"></path></svg>