<svg width="30.020000" height="11.070000" viewBox="0.030000 -27.120000 30.020000 11.070000" xmlns="http://www.w3.org/2000/svg"><path d="M30.030000 -19.950000C30.010000 -20.090000 30.000000 -20.220000 30.000000 -20.340000C29.980000 -20.640000 29.940000 -20.870000 29.880000 -21.030000C29.820000 -21.130000 29.740000 -21.230000 29.640000 -21.330000L29.370000 -21.570000L29.370000 -23.760000L28.710000 -23.760000L26.640000 -25.860000L27.210000 -26.430000L26.970000 -26.460000C26.910000 -26.480000 26.015000 -26.590000 24.285000 -26.790000C22.555000 -26.990000 20.270000 -27.100000 17.430000 -27.120000C15.090000 -27.000000 13.020000 -26.485000 11.220000 -25.575000C9.420000 -24.665000 8.380000 -24.080000 8.100000 -23.820000C5.120000 -23.560000 3.135000 -23.170000 2.145000 -22.650000C1.155000 -22.130000 0.690000 -21.830000 0.750000 -21.750000L0.720000 -21.720000L0.690000 -21.570000C1.050000 -21.850000 1.640000 -22.000000 2.460000 -22.020000L2.790000 -22.020000C2.850000 -22.000000 2.900000 -21.990000 2.940000 -21.990000C3.100000 -21.990000 3.195000 -21.945000 3.225000 -21.855000C3.255000 -21.765000 3.245000 -21.665000 3.195000 -21.555000C3.145000 -21.445000 3.090000 -21.370000 3.030000 -21.330000C2.970000 -21.210000 2.845000 -21.035000 2.655000 -20.805000C2.465000 -20.575000 2.270000 -20.450000 2.070000 -20.430000L0.150000 -20.430000C0.110000 -20.230000 0.080000 -20.040000 0.060000 -19.860000C0.040000 -19.680000 0.030000 -19.550000 0.030000 -19.470000L0.030000 -19.350000L0.300000 -19.350000L0.300000 -17.490000L3.630000 -17.490000L3.630000 -17.640000C3.610000 -17.680000 3.640000 -17.970000 3.720000 -18.510000C3.800000 -19.050000 4.060000 -19.565000 4.500000 -20.055000C4.940000 -20.545000 5.545000 -20.790000 6.315000 -20.790000C7.085000 -20.790000 7.690000 -20.550000 8.130000 -20.070000C8.530000 -19.570000 8.765000 -19.050000 8.835000 -18.510000C8.905000 -17.970000 8.920000 -17.680000 8.880000 -17.640000L8.880000 -17.490000L23.070000 -17.490000L23.100000 -17.610000C23.060000 -17.750000 23.215000 -18.270000 23.565000 -19.170000C23.915000 -20.070000 24.690000 -20.580000 25.890000 -20.700000C27.070000 -20.600000 27.805000 -20.155000 28.095000 -19.365000C28.385000 -18.575000 28.510000 -18.100000 28.470000 -17.940000L28.500000 -17.820000L29.040000 -17.820000C29.260000 -17.820000 29.440000 -17.910000 29.580000 -18.090000C29.780000 -18.350000 29.910000 -18.670000 29.970000 -19.050000C30.030000 -19.430000 30.050000 -19.730000 30.030000 -19.950000ZM8.910000 -23.550000C8.790000 -23.570000 8.630000 -23.630000 8.430000 -23.730000C9.250000 -24.250000 10.100000 -24.720000 10.980000 -25.140000C11.860000 -25.560000 12.720000 -25.910000 13.560000 -26.190000L13.590000 -26.190000L13.770000 -26.070000C13.130000 -25.850000 12.445000 -25.540000 11.715000 -25.140000C10.985000 -24.740000 10.350000 -24.380000 9.810000 -24.060000L8.940000 -23.550000ZM11.340000 -22.950000C11.160000 -22.950000 10.970000 -22.960000 10.770000 -22.980000L10.170000 -23.070000L11.010000 -23.160000C11.170000 -23.080000 11.365000 -23.040000 11.595000 -23.040000C11.825000 -23.040000 12.015000 -23.085000 12.165000 -23.175000C12.315000 -23.265000 12.390000 -23.375000 12.390000 -23.505000C12.390000 -23.635000 12.315000 -23.745000 12.165000 -23.835000C12.015000 -23.925000 11.825000 -23.970000 11.595000 -23.970000C11.365000 -23.970000 11.175000 -23.925000 11.025000 -23.835000C10.875000 -23.745000 10.790000 -23.640000 10.770000 -23.520000C10.590000 -23.460000 10.410000 -23.390000 10.230000 -23.310000L9.930000 -23.160000C9.770000 -23.240000 9.730000 -23.310000 9.810000 -23.370000C10.010000 -23.570000 10.680000 -24.000000 11.820000 -24.660000C12.960000 -25.320000 14.220000 -25.810000 15.600000 -26.130000C16.080000 -26.250000 16.590000 -26.320000 17.130000 -26.340000L17.220000 -23.250000C15.660000 -23.150000 14.310000 -23.080000 13.170000 -23.040000ZM18.630000 -23.340000L18.420000 -26.400000C19.400000 -26.400000 20.295000 -26.375000 21.105000 -26.325000C21.915000 -26.275000 22.440000 -26.230000 22.680000 -26.190000L22.860000 -26.190000L23.460000 -23.700000C22.880000 -23.640000 22.165000 -23.575000 21.315000 -23.505000C20.465000 -23.435000 19.570000 -23.380000 18.630000 -23.340000ZM25.290000 -24.180000C25.090000 -24.060000 24.845000 -23.965000 24.555000 -23.895000C24.265000 -23.825000 24.000000 -23.770000 23.760000 -23.730000L23.190000 -26.130000C23.570000 -26.110000 23.860000 -26.055000 24.060000 -25.965000C24.260000 -25.875000 24.485000 -25.720000 24.735000 -25.500000C24.985000 -25.280000 25.180000 -25.090000 25.320000 -24.930000C25.420000 -24.850000 25.490000 -24.735000 25.530000 -24.585000C25.570000 -24.435000 25.490000 -24.300000 25.290000 -24.180000ZM29.100000 -22.170000L28.770000 -22.170000L28.290000 -23.280000C28.290000 -23.280000 28.290000 -23.305000 28.290000 -23.355000C28.290000 -23.405000 28.350000 -23.430000 28.470000 -23.430000L29.100000 -23.430000ZM6.300000 -20.250000C5.700000 -20.230000 5.200000 -20.020000 4.800000 -19.620000C4.400000 -19.220000 4.200000 -18.720000 4.200000 -18.120000C4.200000 -17.520000 4.400000 -17.025000 4.800000 -16.635000C5.200000 -16.245000 5.700000 -16.050000 6.300000 -16.050000C6.900000 -16.050000 7.400000 -16.245000 7.800000 -16.635000C8.200000 -17.025000 8.400000 -17.520000 8.400000 -18.120000C8.400000 -18.720000 8.200000 -19.220000 7.800000 -19.620000C7.400000 -20.020000 6.900000 -20.230000 6.300000 -20.250000ZM6.300000 -16.980000C5.980000 -16.980000 5.710000 -17.090000 5.490000 -17.310000C5.270000 -17.530000 5.160000 -17.800000 5.160000 -18.120000C5.160000 -18.440000 5.270000 -18.710000 5.490000 -18.930000C5.710000 -19.150000 5.980000 -19.260000 6.300000 -19.260000C6.620000 -19.260000 6.890000 -19.150000 7.110000 -18.930000C7.330000 -18.710000 7.440000 -18.440000 7.440000 -18.120000C7.440000 -17.800000 7.330000 -17.530000 7.110000 -17.310000C6.890000 -17.090000 6.620000 -16.980000 6.300000 -16.980000ZM25.890000 -20.250000C25.290000 -20.230000 24.790000 -20.020000 24.390000 -19.620000C23.990000 -19.220000 23.790000 -18.720000 23.790000 -18.120000C23.790000 -17.520000 23.990000 -17.025000 24.390000 -16.635000C24.790000 -16.245000 25.290000 -16.050000 25.890000 -16.050000C26.490000 -16.050000 26.985000 -16.245000 27.375000 -16.635000C27.765000 -17.025000 27.960000 -17.520000 27.960000 -18.120000C27.960000 -18.720000 27.765000 -19.220000 27.375000 -19.620000C26.985000 -20.020000 26.490000 -20.230000 25.890000 -20.250000ZM25.890000 -16.980000C25.570000 -16.980000 25.300000 -17.090000 25.080000 -17.310000C24.860000 -17.530000 24.750000 -17.800000 24.750000 -18.120000C24.750000 -18.440000 24.860000 -18.710000 25.080000 -18.930000C25.300000 -19.150000 25.570000 -19.260000 25.890000 -19.260000C26.210000 -19.260000 26.480000 -19.150000 26.700000 -18.930000C26.920000 -18.710000 27.030000 -18.440000 27.030000 -18.120000C27.030000 -17.800000 26.920000 -17.530000 26.700000 -17.310000C26.480000 -17.090000 26.210000 -16.980000 25.890000 -16.980000ZM25.890000 -16.980000"></path></svg>