<svg width="21.140000" height="10.890000" viewBox="4.200000 -27.300000 21.140000 10.890000" xmlns="http://www.w3.org/2000/svg"><path d="M25.320000 -21.450000C25.280000 -21.430000 25.200000 -21.480000 25.080000 -21.600000L23.040000 -23.910000C22.420000 -23.910000 21.950000 -23.895000 21.630000 -23.865000C21.310000 -23.835000 21.110000 -23.800000 21.030000 -23.760000L20.760000 -23.550000C20.640000 -23.470000 20.490000 -23.390000 20.310000 -23.310000L19.830000 -23.130000C19.590000 -23.050000 19.420000 -22.970000 19.320000 -22.890000C18.820000 -22.550000 18.470000 -21.930000 18.270000 -21.030000L19.320000 -20.610000C19.560000 -20.950000 19.865000 -21.215000 20.235000 -21.405000C20.605000 -21.595000 21.010000 -21.690000 21.450000 -21.690000C22.170000 -21.710000 22.795000 -21.455000 23.325000 -20.925000C23.855000 -20.395000 24.120000 -19.770000 24.120000 -19.050000C24.120000 -18.330000 23.855000 -17.710000 23.325000 -17.190000C22.795000 -16.670000 22.180000 -16.410000 21.480000 -16.410000C20.780000 -16.410000 20.180000 -16.640000 19.680000 -17.100000C19.180000 -17.560000 18.890000 -18.130000 18.810000 -18.810000L18.090000 -18.930000C18.090000 -18.610000 18.045000 -18.375000 17.955000 -18.225000C17.865000 -18.075000 17.670000 -17.990000 17.370000 -17.970000L10.470000 -17.700000C10.530000 -17.860000 10.580000 -18.110000 10.620000 -18.450000L10.650000 -19.200000L10.620000 -19.590000C10.340000 -20.130000 9.990000 -20.640000 9.570000 -21.120000L9.030000 -20.580000C9.350000 -20.140000 9.510000 -19.630000 9.510000 -19.050000C9.510000 -18.330000 9.250000 -17.710000 8.730000 -17.190000C8.210000 -16.670000 7.585000 -16.410000 6.855000 -16.410000C6.125000 -16.410000 5.500000 -16.670000 4.980000 -17.190000C4.460000 -17.710000 4.200000 -18.330000 4.200000 -19.050000C4.200000 -19.770000 4.460000 -20.395000 4.980000 -20.925000C5.500000 -21.455000 6.130000 -21.720000 6.870000 -21.720000C7.450000 -21.720000 7.990000 -21.520000 8.490000 -21.120000L9.000000 -21.660000C8.700000 -21.920000 8.365000 -22.170000 7.995000 -22.410000C7.625000 -22.650000 7.370000 -22.790000 7.230000 -22.830000L6.930000 -22.950000C6.790000 -22.930000 6.670000 -22.940000 6.570000 -22.980000C6.470000 -23.020000 6.380000 -23.085000 6.300000 -23.175000C6.220000 -23.265000 6.200000 -23.420000 6.240000 -23.640000C6.280000 -23.860000 6.370000 -24.120000 6.510000 -24.420000C6.610000 -24.660000 6.785000 -24.930000 7.035000 -25.230000C7.285000 -25.530000 7.530000 -25.790000 7.770000 -26.010000C8.010000 -26.230000 8.270000 -26.450000 8.550000 -26.670000L9.120000 -27.120000C9.240000 -27.220000 9.330000 -27.280000 9.390000 -27.300000C9.570000 -27.300000 9.750000 -27.260000 9.930000 -27.180000C10.110000 -27.100000 10.265000 -27.020000 10.395000 -26.940000C10.525000 -26.860000 10.650000 -26.770000 10.770000 -26.670000L11.010000 -26.430000C11.070000 -26.390000 11.090000 -26.360000 11.070000 -26.340000L9.840000 -25.470000C9.940000 -25.490000 10.040000 -25.500000 10.140000 -25.500000L10.380000 -25.470000L10.590000 -25.350000C10.670000 -25.290000 10.720000 -25.250000 10.740000 -25.230000L10.830000 -25.110000C10.870000 -25.070000 10.900000 -25.040000 10.920000 -25.020000L10.920000 -24.960000L11.040000 -24.960000C11.100000 -24.940000 11.210000 -24.950000 11.370000 -24.990000C11.530000 -25.030000 11.710000 -25.090000 11.910000 -25.170000C12.210000 -25.330000 12.685000 -25.445000 13.335000 -25.515000C13.985000 -25.585000 14.610000 -25.620000 15.210000 -25.620000C15.410000 -25.620000 15.600000 -25.570000 15.780000 -25.470000C15.960000 -25.370000 16.105000 -25.260000 16.215000 -25.140000C16.325000 -25.020000 16.430000 -24.870000 16.530000 -24.690000L16.710000 -24.360000C16.750000 -24.300000 16.770000 -24.250000 16.770000 -24.210000L18.300000 -24.210000C18.420000 -24.210000 18.530000 -24.230000 18.630000 -24.270000C18.730000 -24.310000 18.825000 -24.365000 18.915000 -24.435000C19.005000 -24.505000 19.080000 -24.575000 19.140000 -24.645000C19.200000 -24.715000 19.280000 -24.810000 19.380000 -24.930000L19.650000 -25.200000C19.870000 -25.420000 20.100000 -25.600000 20.340000 -25.740000C20.580000 -25.880000 20.790000 -25.940000 20.970000 -25.920000L22.530000 -25.920000C22.650000 -25.920000 22.745000 -25.915000 22.815000 -25.905000C22.885000 -25.895000 22.940000 -25.880000 22.980000 -25.860000C23.020000 -25.840000 23.040000 -25.810000 23.040000 -25.770000L23.100000 -25.710000C23.100000 -25.690000 23.100000 -25.680000 23.100000 -25.680000L23.970000 -25.680000C24.070000 -25.680000 24.155000 -25.650000 24.225000 -25.590000C24.295000 -25.530000 24.330000 -25.460000 24.330000 -25.380000L24.330000 -24.480000C24.330000 -24.360000 24.300000 -24.270000 24.240000 -24.210000C24.180000 -24.150000 24.130000 -24.110000 24.090000 -24.090000C24.050000 -24.070000 24.030000 -24.060000 24.030000 -24.060000L24.270000 -23.550000C24.430000 -23.230000 24.610000 -22.875000 24.810000 -22.485000C25.010000 -22.095000 25.140000 -21.850000 25.200000 -21.750000C25.300000 -21.590000 25.340000 -21.490000 25.320000 -21.450000ZM24.120000 -24.540000L24.120000 -25.200000C24.120000 -25.320000 24.105000 -25.400000 24.075000 -25.440000C24.045000 -25.480000 23.980000 -25.500000 23.880000 -25.500000L23.220000 -25.500000L23.880000 -24.270000C24.040000 -24.270000 24.120000 -24.360000 24.120000 -24.540000ZM23.280000 -19.050000C23.280000 -19.570000 23.100000 -20.010000 22.740000 -20.370000C22.380000 -20.730000 21.935000 -20.910000 21.405000 -20.910000C20.875000 -20.910000 20.430000 -20.710000 20.070000 -20.310000L21.540000 -19.740000C21.800000 -19.660000 21.960000 -19.510000 22.020000 -19.290000C22.080000 -19.070000 22.045000 -18.870000 21.915000 -18.690000C21.785000 -18.510000 21.565000 -18.430000 21.255000 -18.450000C20.945000 -18.470000 20.400000 -18.540000 19.620000 -18.660000C19.700000 -18.240000 19.910000 -17.890000 20.250000 -17.610000C20.590000 -17.330000 20.980000 -17.190000 21.420000 -17.190000C21.940000 -17.190000 22.380000 -17.370000 22.740000 -17.730000C23.100000 -18.090000 23.280000 -18.530000 23.280000 -19.050000ZM23.040000 -25.320000C23.080000 -25.360000 23.070000 -25.420000 23.010000 -25.500000C22.950000 -25.680000 22.810000 -25.770000 22.590000 -25.770000L21.000000 -25.770000C20.800000 -25.770000 20.570000 -25.680000 20.310000 -25.500000C19.990000 -25.300000 19.755000 -25.085000 19.605000 -24.855000C19.455000 -24.625000 19.470000 -24.510000 19.650000 -24.510000C19.710000 -24.510000 19.825000 -24.550000 19.995000 -24.630000C20.165000 -24.710000 20.350000 -24.805000 20.550000 -24.915000C20.750000 -25.025000 21.055000 -25.110000 21.465000 -25.170000C21.875000 -25.230000 22.320000 -25.260000 22.800000 -25.260000C22.920000 -25.260000 23.000000 -25.280000 23.040000 -25.320000ZM22.920000 -24.120000C22.860000 -24.220000 22.780000 -24.270000 22.680000 -24.270000L21.480000 -24.240000C21.180000 -24.220000 20.990000 -24.190000 20.910000 -24.150000C20.830000 -24.110000 20.750000 -24.060000 20.670000 -24.000000L19.830000 -23.460000L18.480000 -23.220000C18.260000 -23.180000 18.150000 -23.140000 18.150000 -23.100000C18.150000 -23.060000 18.270000 -23.050000 18.510000 -23.070000C18.990000 -23.130000 19.450000 -23.210000 19.890000 -23.310000C20.150000 -23.370000 20.460000 -23.540000 20.820000 -23.820000C20.900000 -23.880000 20.970000 -23.910000 21.030000 -23.910000C21.130000 -23.950000 21.310000 -23.970000 21.570000 -23.970000L22.830000 -24.000000C22.930000 -24.020000 22.960000 -24.060000 22.920000 -24.120000ZM16.320000 -24.150000C16.200000 -24.490000 16.045000 -24.760000 15.855000 -24.960000C15.665000 -25.160000 15.480000 -25.270000 15.300000 -25.290000C15.040000 -25.310000 14.555000 -25.290000 13.845000 -25.230000C13.135000 -25.170000 12.610000 -25.090000 12.270000 -24.990000L11.730000 -24.750000C11.570000 -24.650000 11.445000 -24.540000 11.355000 -24.420000C11.265000 -24.300000 11.230000 -24.170000 11.250000 -24.030000C11.270000 -23.890000 11.350000 -23.740000 11.490000 -23.580000C11.710000 -23.360000 12.120000 -23.205000 12.720000 -23.115000C13.320000 -23.025000 13.790000 -23.050000 14.130000 -23.190000C14.290000 -23.270000 14.460000 -23.385000 14.640000 -23.535000C14.820000 -23.685000 14.985000 -23.805000 15.135000 -23.895000C15.285000 -23.985000 15.460000 -24.060000 15.660000 -24.120000C15.860000 -24.180000 16.080000 -24.190000 16.320000 -24.150000ZM16.050000 -19.650000C16.050000 -19.830000 15.990000 -19.980000 15.870000 -20.100000C15.750000 -20.220000 15.605000 -20.280000 15.435000 -20.280000C15.265000 -20.280000 15.120000 -20.220000 15.000000 -20.100000C14.880000 -19.980000 14.820000 -19.835000 14.820000 -19.665000C14.820000 -19.495000 14.880000 -19.350000 15.000000 -19.230000C15.120000 -19.110000 15.265000 -19.050000 15.435000 -19.050000C15.605000 -19.050000 15.750000 -19.110000 15.870000 -19.230000C15.990000 -19.350000 16.050000 -19.490000 16.050000 -19.650000ZM15.600000 -24.300000C15.260000 -24.280000 14.940000 -24.235000 14.640000 -24.165000C14.340000 -24.095000 14.110000 -24.020000 13.950000 -23.940000C13.790000 -23.860000 13.640000 -23.770000 13.500000 -23.670000L13.290000 -23.460000C13.270000 -23.420000 13.240000 -23.390000 13.200000 -23.370000C12.960000 -23.370000 12.715000 -23.400000 12.465000 -23.460000C12.215000 -23.520000 12.050000 -23.570000 11.970000 -23.610000C11.890000 -23.650000 11.830000 -23.670000 11.790000 -23.670000C12.070000 -23.910000 12.390000 -24.090000 12.750000 -24.210000C13.110000 -24.330000 13.440000 -24.400000 13.740000 -24.420000C14.040000 -24.440000 14.360000 -24.440000 14.700000 -24.420000C15.040000 -24.400000 15.260000 -24.375000 15.360000 -24.345000C15.460000 -24.315000 15.540000 -24.300000 15.600000 -24.300000ZM15.060000 -20.970000C15.060000 -21.070000 15.000000 -21.150000 14.880000 -21.210000L11.910000 -23.100000C11.750000 -23.160000 11.655000 -23.160000 11.625000 -23.100000C11.595000 -23.040000 11.640000 -22.980000 11.760000 -22.920000L13.320000 -21.960000C14.160000 -21.420000 14.630000 -21.110000 14.730000 -21.030000C14.790000 -20.970000 14.830000 -20.910000 14.850000 -20.850000C14.870000 -20.790000 14.865000 -20.720000 14.835000 -20.640000C14.805000 -20.560000 14.775000 -20.485000 14.745000 -20.415000C14.715000 -20.345000 14.685000 -20.290000 14.655000 -20.250000C14.625000 -20.210000 14.610000 -20.190000 14.610000 -20.190000C14.810000 -20.350000 14.950000 -20.500000 15.030000 -20.640000C15.110000 -20.780000 15.120000 -20.890000 15.060000 -20.970000ZM10.890000 -19.950000C10.890000 -20.230000 10.830000 -20.535000 10.710000 -20.865000C10.590000 -21.195000 10.440000 -21.500000 10.260000 -21.780000L9.840000 -21.390000C10.060000 -21.150000 10.260000 -20.910000 10.440000 -20.670000L10.800000 -20.160000C10.860000 -20.080000 10.890000 -20.010000 10.890000 -19.950000ZM9.690000 -22.350000C9.670000 -22.370000 9.600000 -22.410000 9.480000 -22.470000C9.220000 -22.630000 8.910000 -22.750000 8.550000 -22.830000C8.190000 -22.910000 7.950000 -22.950000 7.830000 -22.950000L7.500000 -22.950000C8.120000 -22.690000 8.700000 -22.340000 9.240000 -21.900000ZM8.700000 -19.020000C8.700000 -19.380000 8.610000 -19.700000 8.430000 -19.980000L7.170000 -18.720000C7.110000 -18.640000 7.020000 -18.600000 6.900000 -18.600000C6.780000 -18.600000 6.685000 -18.645000 6.615000 -18.735000C6.545000 -18.825000 6.510000 -18.920000 6.510000 -19.020000C6.510000 -19.120000 6.550000 -19.210000 6.630000 -19.290000L7.890000 -20.580000C7.590000 -20.780000 7.240000 -20.880000 6.840000 -20.880000C6.320000 -20.880000 5.880000 -20.705000 5.520000 -20.355000C5.160000 -20.005000 4.980000 -19.570000 4.980000 -19.050000C4.980000 -18.530000 5.160000 -18.090000 5.520000 -17.730000C5.880000 -17.370000 6.320000 -17.190000 6.840000 -17.190000C7.360000 -17.190000 7.800000 -17.370000 8.160000 -17.730000C8.520000 -18.090000 8.700000 -18.520000 8.700000 -19.020000ZM7.830000 -24.480000L7.680000 -24.480000C7.620000 -24.480000 7.510000 -24.500000 7.350000 -24.540000C7.190000 -24.580000 7.050000 -24.630000 6.930000 -24.690000L6.810000 -24.540000C6.750000 -24.440000 6.690000 -24.300000 6.630000 -24.120000C6.570000 -23.940000 6.530000 -23.750000 6.510000 -23.550000L6.570000 -23.610000C6.590000 -23.670000 6.630000 -23.730000 6.690000 -23.790000L6.930000 -24.030000C7.030000 -24.110000 7.160000 -24.195000 7.320000 -24.285000C7.480000 -24.375000 7.650000 -24.440000 7.830000 -24.480000ZM7.830000 -24.480000"></path></svg>