<svg version="1.1" height="16.48" width="30" xmlns="http://www.w3.org/2000/svg">
  <path d="m 8.3094198,11.491157 c -1.3849036,0 -2.4890834,1.102404 -2.4890834,2.485081 0,1.382676 1.1041798,2.503762 2.4890834,2.503762 1.3849032,0 2.4890822,-1.121086 2.4890822,-2.503762 0,-1.382677 -1.104179,-2.485081 -2.4890822,-2.485081 z m 0,4.260137 c -0.9918903,0 -1.7779168,-0.784762 -1.7779168,-1.775056 0,-0.990295 0.7860265,-1.775058 1.7779168,-1.775058 0.9731749,0 1.7779172,0.803447 1.7779172,1.775058 0,0.990294 -0.8047423,1.775056 -1.7779172,1.775056 z M 25.377416,11.491157 c -1.384903,0 -2.507798,1.102404 -2.507798,2.485081 0,1.382676 1.122895,2.503762 2.507798,2.503762 1.384904,0 2.489084,-1.121086 2.489084,-2.503762 0,-1.382677 -1.122894,-2.485081 -2.489084,-2.485081 z m 0,4.260137 c -0.991889,0 -1.777915,-0.784762 -1.777915,-1.775056 0,-0.990295 0.786026,-1.775058 1.777915,-1.775058 0.973176,0 1.777917,0.803447 1.777917,1.775058 0,0.971609 -0.804741,1.775056 -1.777917,1.775056 z m 0.03743,-6.9694337 c -1.310044,0 -2.507799,0.5605441 -3.34997,1.4574137 l 0,-0.168162 c 0,-0.1681642 -0.131003,-0.2989566 -0.299438,-0.2989566 l -0.411729,0 0,-0.8968714 0.860887,0 c 0.168435,0 0.299438,-0.1307933 0.299438,-0.2802721 0,-0.1494781 -0.131003,-0.2989568 -0.299438,-0.2989568 l -0.374298,0 c 0,-0.1121094 -0.112291,-0.2242171 -0.243294,-0.2242171 l -3.144104,0 c -0.131005,0 -0.224581,0.093423 -0.243295,0.2242171 l -0.374297,0 c -0.168435,0 -0.29944,0.130794 -0.29944,0.2989568 0,0.1681635 0.131005,0.2802721 0.29944,0.2802721 l 1.122893,0 0,0.8968714 -1.572052,0 c -0.14972,0 -0.280723,0.1307924 -0.280723,0.2989566 l 0,0.280272 -4.641298,0 c -0.168434,0 -0.299439,0.130794 -0.299439,0.298956 l 0,0.597915 -1.384903,0 0,-10.94929812 C 10.779788,0.1494785 10.648783,0 10.480349,0 L 1.6656267,0 C 1.4971931,0 1.3661883,0.1494785 1.3661883,0.29895688 L 0.13100482,6.2780956 c 0,0.03737 -0.0187149,0.074739 -0.0187149,0.112109 l 0,7.6981404 C 0.03742995,14.144399 0,14.219139 0,14.331248 l 0,0.523174 c 0,0.168164 0.13100482,0.298957 0.29943838,0.298957 l 1.17903982,0 c 0.056144,0.03737 0.1122886,0.05605 0.1871485,0.05605 l 3.8178414,0 C 5.3150346,14.835738 5.2214597,14.405986 5.2214597,13.976238 c 0,-1.700318 1.3849032,-3.082995 3.0879601,-3.082995 0.9731749,0 1.8527762,0.467121 2.4329382,1.177143 l 0,0.01868 c 0,0 0.01871,0.01868 0.03743,0.03737 l 0,-0.03737 0.748597,0 0,1.233198 10.330629,0 c 0.07487,0 0.11229,0.616598 0.187149,0.560543 l 0.05614,0 c 0.07487,-1.756372 1.515909,-3.157733 3.27511,-3.157733 1.759202,0 3.218965,1.401361 3.275109,3.157733 L 30,13.228847 C 29.943854,10.76245 27.90393,8.7818603 25.414848,8.7818603 Z M 7.2800995,6.4649436 c 0,0.1681634 -0.1310048,0.2989571 -0.2994383,0.2989571 l -2.994385,0 -1.1041798,1.4947848 -1.2538997,0 c -0.1684336,0 -0.2994383,-0.1307932 -0.2994383,-0.2989568 l 0,-1.4013607 c 0,-0.018686 0,-0.03737 0,-0.03737 0,-0.018686 0,-0.03737 0,-0.056054 l 0.973175,-5.2130617 c 0,-0.1681632 0.1310049,-0.2989568 0.2994396,-0.2989568 l 4.3792882,0 c 0.1684335,0 0.2994383,0.1307936 0.2994383,0.2989568 l 0,5.2130615 z" />
</svg>
